<svg version="1.1" xmlns="http://www.w3.org/2000/svg" xmlns:xlink="http://www.w3.org/1999/xlink" x="0px" y="0px" width="25px" height="200px">
	<g id="brackewt">	
			<path d="M6,2 C5,2 4,3 4,4 L4,4 4,6 C4,7 3,8 2,8 C3,8 4,9 4,10 L4,12 C 4,13 5,14 6,14" stroke="black" stroke-width="2" fill="transparent"/>
	<path d="M10,2 C11,2 12,3 12,4 L12,6 C12,7 13,8 14,8 C13,8 12,9 12,10 L12,12 C12,13 11,14 10,14" stroke="black" stroke-width="2" fill="transparent"/>
	</g>
	<g id="cricle" transform="translate(0,25)">
		<circle cx="10" cy="10" r="8.5" fill="black" />
	</g>
	<g transform="translate(0,50)">
		<rect x="0" y="0" height="15" width="15" stroke="#000000" stroke-width="1.0" fill="transparent" />
		<rect x="3.5" y="0" width="8.5" height="5" stroke="#000000" stroke-width="1.0" fill="transparent"/>
	</g>
	<g id="ellipse" transform="translate(0,75)">
		<ellipse cx="10" cy="10" rx="9" ry="6" fill="black" />
	</g>
	<g id="line" transform="translate(0,100)">
		<line x1="0" y1="10" x2="10" y2="0" stroke="black" stroke-width="2" />
	</g>
	<g id="path" transform="translate(0,125)">
		<path d="M0 10 C 5 0, 6 0, 10 10 S 15 18, 18 10" stroke="black" stroke-width="2" fill="transparent" />	
	</g>
	<g id="square" transform="translate(0, 150)">
		<rect x="0" y="0" height="10" width="10" fill="black" />
	</g>
	<g id="triangle" transform="translate(0, 175)">
		<polygon points="0,10 5,0 10,10" fill="black" />
	</g>
</svg>